<mxfile host="app.diagrams.net" modified="2020-03-22T09:33:50.465Z" agent="Mozilla/5.0 (Macintosh; Intel Mac OS X 10_13_1) AppleWebKit/537.36 (KHTML, like Gecko) Chrome/80.0.3987.132 Safari/537.36" etag="jjPiW_exhpTTUFAiKTMs" version="12.8.5" type="github">
  <diagram id="lcznnpOXp_Ttz94rvxGr" name="第 1 页">
    <mxGraphModel dx="1186" dy="614" grid="1" gridSize="10" guides="1" tooltips="1" connect="1" arrows="1" fold="1" page="1" pageScale="1" pageWidth="827" pageHeight="1169" math="0" shadow="0">
      <root>
        <mxCell id="0" />
        <mxCell id="1" parent="0" />
        <mxCell id="FH6hujt-m_msskHk3Pih-68" value="" style="verticalLabelPosition=bottom;verticalAlign=top;html=1;shape=mxgraph.basic.three_corner_round_rect;dx=6;strokeColor=#4D4D4D;fillColor=#E6E6E6;" vertex="1" parent="1">
          <mxGeometry x="75" y="770" width="190" height="360" as="geometry" />
        </mxCell>
        <mxCell id="FH6hujt-m_msskHk3Pih-1" value="" style="ellipse;html=1;shape=startState;fillColor=#000000;strokeColor=#ff0000;" vertex="1" parent="1">
          <mxGeometry x="100" y="180" width="30" height="30" as="geometry" />
        </mxCell>
        <mxCell id="FH6hujt-m_msskHk3Pih-2" value="" style="edgeStyle=orthogonalEdgeStyle;html=1;verticalAlign=bottom;endArrow=open;endSize=8;strokeColor=#ff0000;" edge="1" source="FH6hujt-m_msskHk3Pih-1" parent="1">
          <mxGeometry relative="1" as="geometry">
            <mxPoint x="115" y="270" as="targetPoint" />
          </mxGeometry>
        </mxCell>
        <mxCell id="FH6hujt-m_msskHk3Pih-3" value="创建项目" style="rounded=1;whiteSpace=wrap;html=1;arcSize=40;fontColor=#000000;fillColor=#ffffc0;strokeColor=#ff0000;" vertex="1" parent="1">
          <mxGeometry x="55" y="270" width="120" height="40" as="geometry" />
        </mxCell>
        <mxCell id="FH6hujt-m_msskHk3Pih-4" value="" style="edgeStyle=orthogonalEdgeStyle;html=1;verticalAlign=bottom;endArrow=open;endSize=8;strokeColor=#ff0000;" edge="1" source="FH6hujt-m_msskHk3Pih-3" parent="1">
          <mxGeometry relative="1" as="geometry">
            <mxPoint x="115" y="370" as="targetPoint" />
          </mxGeometry>
        </mxCell>
        <mxCell id="FH6hujt-m_msskHk3Pih-5" value="创建代码" style="rounded=1;whiteSpace=wrap;html=1;arcSize=40;fontColor=#000000;fillColor=#ffffc0;strokeColor=#ff0000;" vertex="1" parent="1">
          <mxGeometry x="55" y="370" width="120" height="40" as="geometry" />
        </mxCell>
        <mxCell id="FH6hujt-m_msskHk3Pih-6" value="" style="edgeStyle=orthogonalEdgeStyle;html=1;verticalAlign=bottom;endArrow=open;endSize=8;strokeColor=#ff0000;entryX=0.5;entryY=0;entryDx=0;entryDy=0;" edge="1" source="FH6hujt-m_msskHk3Pih-5" parent="1" target="FH6hujt-m_msskHk3Pih-40">
          <mxGeometry relative="1" as="geometry">
            <mxPoint x="120" y="470" as="targetPoint" />
          </mxGeometry>
        </mxCell>
        <mxCell id="FH6hujt-m_msskHk3Pih-7" value="" style="ellipse;html=1;shape=endState;fillColor=#000000;strokeColor=#ff0000;" vertex="1" parent="1">
          <mxGeometry x="100" y="570" width="30" height="30" as="geometry" />
        </mxCell>
        <mxCell id="FH6hujt-m_msskHk3Pih-8" value="" style="ellipse;html=1;shape=startState;fillColor=#000000;strokeColor=#ff0000;" vertex="1" parent="1">
          <mxGeometry x="465" y="180.25" width="30" height="30" as="geometry" />
        </mxCell>
        <mxCell id="FH6hujt-m_msskHk3Pih-9" value="" style="edgeStyle=orthogonalEdgeStyle;html=1;verticalAlign=bottom;endArrow=open;endSize=8;strokeColor=#ff0000;" edge="1" parent="1" source="FH6hujt-m_msskHk3Pih-8">
          <mxGeometry relative="1" as="geometry">
            <mxPoint x="480" y="270.25" as="targetPoint" />
          </mxGeometry>
        </mxCell>
        <mxCell id="FH6hujt-m_msskHk3Pih-10" value="进入项目" style="rounded=1;whiteSpace=wrap;html=1;arcSize=40;fontColor=#000000;fillColor=#ffffc0;strokeColor=#ff0000;" vertex="1" parent="1">
          <mxGeometry x="420" y="270.25" width="120" height="40" as="geometry" />
        </mxCell>
        <mxCell id="FH6hujt-m_msskHk3Pih-11" value="" style="edgeStyle=orthogonalEdgeStyle;html=1;verticalAlign=bottom;endArrow=open;endSize=8;strokeColor=#ff0000;" edge="1" parent="1" source="FH6hujt-m_msskHk3Pih-10">
          <mxGeometry relative="1" as="geometry">
            <mxPoint x="480" y="370.25" as="targetPoint" />
          </mxGeometry>
        </mxCell>
        <mxCell id="FH6hujt-m_msskHk3Pih-12" value="创建发布单" style="rounded=1;whiteSpace=wrap;html=1;arcSize=40;fontColor=#000000;fillColor=#ffffc0;strokeColor=#ff0000;" vertex="1" parent="1">
          <mxGeometry x="420" y="370.25" width="120" height="40" as="geometry" />
        </mxCell>
        <mxCell id="FH6hujt-m_msskHk3Pih-13" value="" style="edgeStyle=orthogonalEdgeStyle;html=1;verticalAlign=bottom;endArrow=open;endSize=8;strokeColor=#ff0000;entryX=0.5;entryY=0;entryDx=0;entryDy=0;" edge="1" parent="1" source="FH6hujt-m_msskHk3Pih-12">
          <mxGeometry relative="1" as="geometry">
            <mxPoint x="480" y="470.25" as="targetPoint" />
          </mxGeometry>
        </mxCell>
        <mxCell id="FH6hujt-m_msskHk3Pih-16" value="创建代码分支" style="rounded=1;whiteSpace=wrap;html=1;arcSize=40;fontColor=#000000;fillColor=#ffffc0;strokeColor=#ff0000;" vertex="1" parent="1">
          <mxGeometry x="420" y="470.25" width="120" height="40" as="geometry" />
        </mxCell>
        <mxCell id="FH6hujt-m_msskHk3Pih-17" value="" style="edgeStyle=orthogonalEdgeStyle;html=1;verticalAlign=bottom;endArrow=open;endSize=8;strokeColor=#ff0000;" edge="1" source="FH6hujt-m_msskHk3Pih-16" parent="1">
          <mxGeometry relative="1" as="geometry">
            <mxPoint x="480" y="570.25" as="targetPoint" />
          </mxGeometry>
        </mxCell>
        <mxCell id="FH6hujt-m_msskHk3Pih-18" value="" style="ellipse;html=1;shape=endState;fillColor=#000000;strokeColor=#ff0000;" vertex="1" parent="1">
          <mxGeometry x="465" y="569.75" width="30" height="30" as="geometry" />
        </mxCell>
        <mxCell id="FH6hujt-m_msskHk3Pih-19" value="" style="ellipse;html=1;shape=startState;fillColor=#000000;strokeColor=#ff0000;" vertex="1" parent="1">
          <mxGeometry x="285" y="180.5" width="30" height="30" as="geometry" />
        </mxCell>
        <mxCell id="FH6hujt-m_msskHk3Pih-20" value="" style="edgeStyle=orthogonalEdgeStyle;html=1;verticalAlign=bottom;endArrow=open;endSize=8;strokeColor=#ff0000;" edge="1" parent="1" source="FH6hujt-m_msskHk3Pih-19">
          <mxGeometry relative="1" as="geometry">
            <mxPoint x="300" y="270.5" as="targetPoint" />
          </mxGeometry>
        </mxCell>
        <mxCell id="FH6hujt-m_msskHk3Pih-21" value="进入项目" style="rounded=1;whiteSpace=wrap;html=1;arcSize=40;fontColor=#000000;fillColor=#ffffc0;strokeColor=#ff0000;" vertex="1" parent="1">
          <mxGeometry x="240" y="270.5" width="120" height="40" as="geometry" />
        </mxCell>
        <mxCell id="FH6hujt-m_msskHk3Pih-22" value="" style="edgeStyle=orthogonalEdgeStyle;html=1;verticalAlign=bottom;endArrow=open;endSize=8;strokeColor=#ff0000;" edge="1" parent="1" source="FH6hujt-m_msskHk3Pih-21">
          <mxGeometry relative="1" as="geometry">
            <mxPoint x="300" y="370.5" as="targetPoint" />
          </mxGeometry>
        </mxCell>
        <mxCell id="FH6hujt-m_msskHk3Pih-23" value="创建运行环境" style="rounded=1;whiteSpace=wrap;html=1;arcSize=40;fontColor=#000000;fillColor=#ffffc0;strokeColor=#ff0000;" vertex="1" parent="1">
          <mxGeometry x="240" y="370.5" width="120" height="40" as="geometry" />
        </mxCell>
        <mxCell id="FH6hujt-m_msskHk3Pih-24" value="" style="edgeStyle=orthogonalEdgeStyle;html=1;verticalAlign=bottom;endArrow=open;endSize=8;strokeColor=#ff0000;entryX=0.5;entryY=0;entryDx=0;entryDy=0;" edge="1" parent="1" source="FH6hujt-m_msskHk3Pih-23">
          <mxGeometry relative="1" as="geometry">
            <mxPoint x="300" y="470.5" as="targetPoint" />
          </mxGeometry>
        </mxCell>
        <mxCell id="FH6hujt-m_msskHk3Pih-25" value="配置资源" style="rounded=1;whiteSpace=wrap;html=1;arcSize=40;fontColor=#000000;fillColor=#ffffc0;strokeColor=#ff0000;" vertex="1" parent="1">
          <mxGeometry x="240" y="470.5" width="120" height="40" as="geometry" />
        </mxCell>
        <mxCell id="FH6hujt-m_msskHk3Pih-26" value="" style="edgeStyle=orthogonalEdgeStyle;html=1;verticalAlign=bottom;endArrow=open;endSize=8;strokeColor=#ff0000;" edge="1" parent="1" source="FH6hujt-m_msskHk3Pih-25">
          <mxGeometry relative="1" as="geometry">
            <mxPoint x="300" y="570.5" as="targetPoint" />
          </mxGeometry>
        </mxCell>
        <mxCell id="FH6hujt-m_msskHk3Pih-27" value="" style="ellipse;html=1;shape=endState;fillColor=#000000;strokeColor=#ff0000;" vertex="1" parent="1">
          <mxGeometry x="285" y="570" width="30" height="30" as="geometry" />
        </mxCell>
        <mxCell id="FH6hujt-m_msskHk3Pih-28" value="" style="ellipse;html=1;shape=startState;fillColor=#000000;strokeColor=#ff0000;" vertex="1" parent="1">
          <mxGeometry x="645" y="180" width="30" height="30" as="geometry" />
        </mxCell>
        <mxCell id="FH6hujt-m_msskHk3Pih-29" value="" style="edgeStyle=orthogonalEdgeStyle;html=1;verticalAlign=bottom;endArrow=open;endSize=8;strokeColor=#ff0000;" edge="1" parent="1" source="FH6hujt-m_msskHk3Pih-28">
          <mxGeometry relative="1" as="geometry">
            <mxPoint x="660" y="270" as="targetPoint" />
          </mxGeometry>
        </mxCell>
        <mxCell id="FH6hujt-m_msskHk3Pih-30" value="进入项目" style="rounded=1;whiteSpace=wrap;html=1;arcSize=40;fontColor=#000000;fillColor=#ffffc0;strokeColor=#ff0000;" vertex="1" parent="1">
          <mxGeometry x="600" y="270" width="120" height="40" as="geometry" />
        </mxCell>
        <mxCell id="FH6hujt-m_msskHk3Pih-31" value="" style="edgeStyle=orthogonalEdgeStyle;html=1;verticalAlign=bottom;endArrow=open;endSize=8;strokeColor=#ff0000;" edge="1" parent="1" source="FH6hujt-m_msskHk3Pih-30">
          <mxGeometry relative="1" as="geometry">
            <mxPoint x="660" y="370" as="targetPoint" />
          </mxGeometry>
        </mxCell>
        <mxCell id="FH6hujt-m_msskHk3Pih-32" value="选择运行环境&lt;br&gt;(日常/预发/正式)" style="rounded=1;whiteSpace=wrap;html=1;arcSize=40;fontColor=#000000;fillColor=#ffffc0;strokeColor=#ff0000;" vertex="1" parent="1">
          <mxGeometry x="600" y="370" width="120" height="40" as="geometry" />
        </mxCell>
        <mxCell id="FH6hujt-m_msskHk3Pih-33" value="" style="edgeStyle=orthogonalEdgeStyle;html=1;verticalAlign=bottom;endArrow=open;endSize=8;strokeColor=#ff0000;entryX=0.5;entryY=0;entryDx=0;entryDy=0;" edge="1" parent="1" source="FH6hujt-m_msskHk3Pih-32">
          <mxGeometry relative="1" as="geometry">
            <mxPoint x="660" y="470" as="targetPoint" />
          </mxGeometry>
        </mxCell>
        <mxCell id="FH6hujt-m_msskHk3Pih-34" value="选择发布单&lt;br&gt;(可多个)" style="rounded=1;whiteSpace=wrap;html=1;arcSize=40;fontColor=#000000;fillColor=#ffffc0;strokeColor=#ff0000;" vertex="1" parent="1">
          <mxGeometry x="600" y="470" width="120" height="40" as="geometry" />
        </mxCell>
        <mxCell id="FH6hujt-m_msskHk3Pih-35" value="" style="edgeStyle=orthogonalEdgeStyle;html=1;verticalAlign=bottom;endArrow=open;endSize=8;strokeColor=#ff0000;" edge="1" parent="1" source="FH6hujt-m_msskHk3Pih-34">
          <mxGeometry relative="1" as="geometry">
            <mxPoint x="660" y="570" as="targetPoint" />
          </mxGeometry>
        </mxCell>
        <mxCell id="FH6hujt-m_msskHk3Pih-36" value="" style="ellipse;html=1;shape=endState;fillColor=#000000;strokeColor=#ff0000;" vertex="1" parent="1">
          <mxGeometry x="645" y="670" width="30" height="30" as="geometry" />
        </mxCell>
        <mxCell id="FH6hujt-m_msskHk3Pih-37" value="CI/CD" style="rounded=1;whiteSpace=wrap;html=1;arcSize=40;fontColor=#000000;fillColor=#ffffc0;strokeColor=#ff0000;" vertex="1" parent="1">
          <mxGeometry x="600" y="570" width="120" height="40" as="geometry" />
        </mxCell>
        <mxCell id="FH6hujt-m_msskHk3Pih-38" value="" style="edgeStyle=orthogonalEdgeStyle;html=1;verticalAlign=bottom;endArrow=open;endSize=8;strokeColor=#ff0000;" edge="1" source="FH6hujt-m_msskHk3Pih-37" parent="1">
          <mxGeometry relative="1" as="geometry">
            <mxPoint x="660" y="670" as="targetPoint" />
          </mxGeometry>
        </mxCell>
        <mxCell id="FH6hujt-m_msskHk3Pih-40" value="申请资源" style="rounded=1;whiteSpace=wrap;html=1;arcSize=40;fontColor=#000000;fillColor=#ffffc0;strokeColor=#ff0000;" vertex="1" parent="1">
          <mxGeometry x="55" y="470" width="120" height="40" as="geometry" />
        </mxCell>
        <mxCell id="FH6hujt-m_msskHk3Pih-42" value="" style="edgeStyle=orthogonalEdgeStyle;html=1;verticalAlign=bottom;endArrow=open;endSize=8;strokeColor=#ff0000;" edge="1" parent="1">
          <mxGeometry relative="1" as="geometry">
            <mxPoint x="114.5" y="570.5" as="targetPoint" />
            <mxPoint x="114.5" y="510.5" as="sourcePoint" />
          </mxGeometry>
        </mxCell>
        <mxCell id="FH6hujt-m_msskHk3Pih-43" value="CI/CD" style="shape=umlLifeline;perimeter=lifelinePerimeter;whiteSpace=wrap;html=1;container=1;collapsible=0;recursiveResize=0;outlineConnect=0;" vertex="1" parent="1">
          <mxGeometry x="120" y="700" width="100" height="820" as="geometry" />
        </mxCell>
        <mxCell id="FH6hujt-m_msskHk3Pih-44" value="GIT" style="shape=umlLifeline;perimeter=lifelinePerimeter;whiteSpace=wrap;html=1;container=1;collapsible=0;recursiveResize=0;outlineConnect=0;" vertex="1" parent="1">
          <mxGeometry x="280" y="700" width="100" height="820" as="geometry" />
        </mxCell>
        <mxCell id="FH6hujt-m_msskHk3Pih-51" value="代码&lt;br&gt;分支" style="html=1;" vertex="1" parent="FH6hujt-m_msskHk3Pih-44">
          <mxGeometry x="36.25" y="126" width="27.5" height="80" as="geometry" />
        </mxCell>
        <mxCell id="FH6hujt-m_msskHk3Pih-93" value="提交&lt;br&gt;主干" style="html=1;" vertex="1" parent="FH6hujt-m_msskHk3Pih-44">
          <mxGeometry x="36.25" y="702.5" width="27.5" height="35" as="geometry" />
        </mxCell>
        <mxCell id="FH6hujt-m_msskHk3Pih-97" value="Tag" style="html=1;" vertex="1" parent="FH6hujt-m_msskHk3Pih-44">
          <mxGeometry x="36.25" y="751" width="27.5" height="35" as="geometry" />
        </mxCell>
        <mxCell id="FH6hujt-m_msskHk3Pih-50" value="" style="edgeStyle=orthogonalEdgeStyle;rounded=0;orthogonalLoop=1;jettySize=auto;html=1;entryX=0;entryY=0.5;entryDx=0;entryDy=0;exitX=0;exitY=0.5;exitDx=0;exitDy=0;" edge="1" parent="1" source="FH6hujt-m_msskHk3Pih-45" target="FH6hujt-m_msskHk3Pih-46">
          <mxGeometry relative="1" as="geometry">
            <mxPoint x="35" y="800" as="targetPoint" />
          </mxGeometry>
        </mxCell>
        <mxCell id="FH6hujt-m_msskHk3Pih-45" value="读取需要的发布单" style="html=1;" vertex="1" parent="1">
          <mxGeometry x="115" y="790" width="110" height="20" as="geometry" />
        </mxCell>
        <mxCell id="FH6hujt-m_msskHk3Pih-47" value="" style="edgeStyle=orthogonalEdgeStyle;rounded=0;orthogonalLoop=1;jettySize=auto;html=1;" edge="1" parent="1" source="FH6hujt-m_msskHk3Pih-46">
          <mxGeometry relative="1" as="geometry">
            <mxPoint x="312" y="850" as="targetPoint" />
          </mxGeometry>
        </mxCell>
        <mxCell id="FH6hujt-m_msskHk3Pih-46" value="拉取对应的分支" style="html=1;" vertex="1" parent="1">
          <mxGeometry x="115" y="840" width="110" height="20" as="geometry" />
        </mxCell>
        <mxCell id="FH6hujt-m_msskHk3Pih-56" value="" style="edgeStyle=orthogonalEdgeStyle;rounded=0;orthogonalLoop=1;jettySize=auto;html=1;entryX=0;entryY=0.5;entryDx=0;entryDy=0;exitX=0;exitY=0.5;exitDx=0;exitDy=0;" edge="1" parent="1" source="FH6hujt-m_msskHk3Pih-48" target="FH6hujt-m_msskHk3Pih-54">
          <mxGeometry relative="1" as="geometry">
            <mxPoint x="35" y="893" as="targetPoint" />
          </mxGeometry>
        </mxCell>
        <mxCell id="FH6hujt-m_msskHk3Pih-48" value="创建发布分支" style="html=1;" vertex="1" parent="1">
          <mxGeometry x="115" y="883" width="110" height="20" as="geometry" />
        </mxCell>
        <mxCell id="FH6hujt-m_msskHk3Pih-53" value="" style="edgeStyle=orthogonalEdgeStyle;rounded=0;orthogonalLoop=1;jettySize=auto;html=1;entryX=1;entryY=0.5;entryDx=0;entryDy=0;exitX=-0.014;exitY=0.838;exitDx=0;exitDy=0;exitPerimeter=0;" edge="1" parent="1" source="FH6hujt-m_msskHk3Pih-51" target="FH6hujt-m_msskHk3Pih-48">
          <mxGeometry relative="1" as="geometry">
            <mxPoint x="235" y="860" as="sourcePoint" />
            <mxPoint x="322" y="860" as="targetPoint" />
          </mxGeometry>
        </mxCell>
        <mxCell id="FH6hujt-m_msskHk3Pih-54" value="编译代码" style="html=1;" vertex="1" parent="1">
          <mxGeometry x="115" y="930" width="110" height="20" as="geometry" />
        </mxCell>
        <mxCell id="FH6hujt-m_msskHk3Pih-57" value="单元测试" style="html=1;" vertex="1" parent="1">
          <mxGeometry x="115" y="970" width="110" height="20" as="geometry" />
        </mxCell>
        <mxCell id="FH6hujt-m_msskHk3Pih-58" value="代码质量" style="html=1;" vertex="1" parent="1">
          <mxGeometry x="115" y="1010" width="110" height="20" as="geometry" />
        </mxCell>
        <mxCell id="FH6hujt-m_msskHk3Pih-59" value="打包生成镜像" style="html=1;" vertex="1" parent="1">
          <mxGeometry x="115" y="1050" width="110" height="20" as="geometry" />
        </mxCell>
        <mxCell id="FH6hujt-m_msskHk3Pih-67" value="" style="edgeStyle=orthogonalEdgeStyle;rounded=0;orthogonalLoop=1;jettySize=auto;html=1;strokeColor=#333333;entryX=0;entryY=0.5;entryDx=0;entryDy=0;" edge="1" parent="1" source="FH6hujt-m_msskHk3Pih-60" target="FH6hujt-m_msskHk3Pih-66">
          <mxGeometry relative="1" as="geometry" />
        </mxCell>
        <mxCell id="FH6hujt-m_msskHk3Pih-60" value="提交镜像" style="html=1;" vertex="1" parent="1">
          <mxGeometry x="115" y="1090" width="110" height="20" as="geometry" />
        </mxCell>
        <mxCell id="FH6hujt-m_msskHk3Pih-61" value="" style="edgeStyle=orthogonalEdgeStyle;rounded=0;orthogonalLoop=1;jettySize=auto;html=1;entryX=1;entryY=0.5;entryDx=0;entryDy=0;exitX=1;exitY=0.5;exitDx=0;exitDy=0;" edge="1" parent="1" source="FH6hujt-m_msskHk3Pih-54" target="FH6hujt-m_msskHk3Pih-57">
          <mxGeometry relative="1" as="geometry">
            <mxPoint x="125" y="903" as="sourcePoint" />
            <mxPoint x="125" y="950" as="targetPoint" />
          </mxGeometry>
        </mxCell>
        <mxCell id="FH6hujt-m_msskHk3Pih-62" value="" style="edgeStyle=orthogonalEdgeStyle;rounded=0;orthogonalLoop=1;jettySize=auto;html=1;entryX=0;entryY=0.5;entryDx=0;entryDy=0;exitX=0;exitY=0.5;exitDx=0;exitDy=0;" edge="1" parent="1" source="FH6hujt-m_msskHk3Pih-57" target="FH6hujt-m_msskHk3Pih-58">
          <mxGeometry relative="1" as="geometry">
            <mxPoint x="235" y="950" as="sourcePoint" />
            <mxPoint x="235" y="990" as="targetPoint" />
          </mxGeometry>
        </mxCell>
        <mxCell id="FH6hujt-m_msskHk3Pih-63" value="" style="edgeStyle=orthogonalEdgeStyle;rounded=0;orthogonalLoop=1;jettySize=auto;html=1;entryX=1;entryY=0.5;entryDx=0;entryDy=0;exitX=1;exitY=0.5;exitDx=0;exitDy=0;" edge="1" parent="1" source="FH6hujt-m_msskHk3Pih-58" target="FH6hujt-m_msskHk3Pih-59">
          <mxGeometry relative="1" as="geometry">
            <mxPoint x="235" y="950" as="sourcePoint" />
            <mxPoint x="235" y="990" as="targetPoint" />
          </mxGeometry>
        </mxCell>
        <mxCell id="FH6hujt-m_msskHk3Pih-64" value="" style="edgeStyle=orthogonalEdgeStyle;rounded=0;orthogonalLoop=1;jettySize=auto;html=1;entryX=0;entryY=0.5;entryDx=0;entryDy=0;exitX=0;exitY=0.5;exitDx=0;exitDy=0;" edge="1" parent="1" source="FH6hujt-m_msskHk3Pih-59" target="FH6hujt-m_msskHk3Pih-60">
          <mxGeometry relative="1" as="geometry">
            <mxPoint x="245" y="960" as="sourcePoint" />
            <mxPoint x="245" y="1000" as="targetPoint" />
          </mxGeometry>
        </mxCell>
        <mxCell id="FH6hujt-m_msskHk3Pih-65" value="镜像库" style="shape=umlLifeline;perimeter=lifelinePerimeter;whiteSpace=wrap;html=1;container=1;collapsible=0;recursiveResize=0;outlineConnect=0;" vertex="1" parent="1">
          <mxGeometry x="430" y="700" width="100" height="820" as="geometry" />
        </mxCell>
        <mxCell id="FH6hujt-m_msskHk3Pih-66" value="镜像" style="html=1;" vertex="1" parent="FH6hujt-m_msskHk3Pih-65">
          <mxGeometry x="35" y="380" width="30" height="40" as="geometry" />
        </mxCell>
        <mxCell id="FH6hujt-m_msskHk3Pih-72" value="" style="edgeStyle=orthogonalEdgeStyle;rounded=0;orthogonalLoop=1;jettySize=auto;html=1;strokeColor=#FF0000;entryX=0;entryY=0.5;entryDx=0;entryDy=0;" edge="1" parent="1" source="FH6hujt-m_msskHk3Pih-69" target="FH6hujt-m_msskHk3Pih-71">
          <mxGeometry relative="1" as="geometry" />
        </mxCell>
        <mxCell id="FH6hujt-m_msskHk3Pih-69" value="提交发布单" style="html=1;" vertex="1" parent="1">
          <mxGeometry x="115" y="1160" width="110" height="20" as="geometry" />
        </mxCell>
        <mxCell id="FH6hujt-m_msskHk3Pih-70" value="K8S" style="shape=umlLifeline;perimeter=lifelinePerimeter;whiteSpace=wrap;html=1;container=1;collapsible=0;recursiveResize=0;outlineConnect=0;" vertex="1" parent="1">
          <mxGeometry x="580" y="700" width="100" height="820" as="geometry" />
        </mxCell>
        <mxCell id="FH6hujt-m_msskHk3Pih-71" value="部署" style="html=1;" vertex="1" parent="FH6hujt-m_msskHk3Pih-70">
          <mxGeometry x="35" y="445" width="30" height="50" as="geometry" />
        </mxCell>
        <mxCell id="FH6hujt-m_msskHk3Pih-86" value="" style="edgeStyle=orthogonalEdgeStyle;rounded=0;orthogonalLoop=1;jettySize=auto;html=1;strokeColor=#333333;entryX=1;entryY=0.5;entryDx=0;entryDy=0;exitX=1;exitY=0.5;exitDx=0;exitDy=0;" edge="1" parent="FH6hujt-m_msskHk3Pih-70" source="FH6hujt-m_msskHk3Pih-78" target="FH6hujt-m_msskHk3Pih-84">
          <mxGeometry relative="1" as="geometry">
            <mxPoint x="145" y="605" as="targetPoint" />
          </mxGeometry>
        </mxCell>
        <mxCell id="FH6hujt-m_msskHk3Pih-78" value="拉取&lt;br&gt;镜像" style="html=1;" vertex="1" parent="FH6hujt-m_msskHk3Pih-70">
          <mxGeometry x="35" y="580" width="30" height="50" as="geometry" />
        </mxCell>
        <mxCell id="FH6hujt-m_msskHk3Pih-84" value="滚动&lt;br&gt;发布" style="html=1;" vertex="1" parent="FH6hujt-m_msskHk3Pih-70">
          <mxGeometry x="35" y="650" width="30" height="50" as="geometry" />
        </mxCell>
        <mxCell id="FH6hujt-m_msskHk3Pih-74" value="构建" style="text;align=center;fontStyle=1;verticalAlign=middle;spacingLeft=3;spacingRight=3;strokeColor=none;rotatable=0;points=[[0,0.5],[1,0.5]];portConstraint=eastwest;fillColor=#E6E6E6;" vertex="1" parent="1">
          <mxGeometry y="903" width="80" height="26" as="geometry" />
        </mxCell>
        <mxCell id="FH6hujt-m_msskHk3Pih-83" value="" style="edgeStyle=orthogonalEdgeStyle;rounded=0;orthogonalLoop=1;jettySize=auto;html=1;strokeColor=#333333;entryX=0;entryY=0.25;entryDx=0;entryDy=0;exitX=0;exitY=0.5;exitDx=0;exitDy=0;" edge="1" parent="1" source="FH6hujt-m_msskHk3Pih-75" target="FH6hujt-m_msskHk3Pih-78">
          <mxGeometry relative="1" as="geometry">
            <mxPoint x="535" y="1235" as="targetPoint" />
          </mxGeometry>
        </mxCell>
        <mxCell id="FH6hujt-m_msskHk3Pih-75" value="更新&lt;br&gt;API" style="html=1;" vertex="1" parent="1">
          <mxGeometry x="615" y="1210" width="30" height="50" as="geometry" />
        </mxCell>
        <mxCell id="FH6hujt-m_msskHk3Pih-77" value="" style="edgeStyle=orthogonalEdgeStyle;rounded=0;orthogonalLoop=1;jettySize=auto;html=1;strokeColor=#333333;entryX=1;entryY=0.5;entryDx=0;entryDy=0;exitX=1;exitY=0.5;exitDx=0;exitDy=0;" edge="1" parent="1" source="FH6hujt-m_msskHk3Pih-71" target="FH6hujt-m_msskHk3Pih-75">
          <mxGeometry relative="1" as="geometry">
            <mxPoint x="725" y="1170" as="targetPoint" />
          </mxGeometry>
        </mxCell>
        <mxCell id="FH6hujt-m_msskHk3Pih-79" value="镜像" style="html=1;" vertex="1" parent="1">
          <mxGeometry x="465" y="1280" width="30" height="50" as="geometry" />
        </mxCell>
        <mxCell id="FH6hujt-m_msskHk3Pih-81" value="" style="edgeStyle=orthogonalEdgeStyle;rounded=0;orthogonalLoop=1;jettySize=auto;html=1;strokeColor=#333333;entryX=1;entryY=0.5;entryDx=0;entryDy=0;" edge="1" parent="1" source="FH6hujt-m_msskHk3Pih-78" target="FH6hujt-m_msskHk3Pih-79">
          <mxGeometry relative="1" as="geometry">
            <mxPoint x="535" y="1305" as="targetPoint" />
          </mxGeometry>
        </mxCell>
        <mxCell id="FH6hujt-m_msskHk3Pih-92" value="" style="edgeStyle=orthogonalEdgeStyle;rounded=0;orthogonalLoop=1;jettySize=auto;html=1;strokeColor=#333333;entryX=0;entryY=0.5;entryDx=0;entryDy=0;exitX=0;exitY=0.5;exitDx=0;exitDy=0;" edge="1" parent="1" source="FH6hujt-m_msskHk3Pih-87" target="FH6hujt-m_msskHk3Pih-90">
          <mxGeometry relative="1" as="geometry">
            <mxPoint x="30" y="1375" as="targetPoint" />
          </mxGeometry>
        </mxCell>
        <mxCell id="FH6hujt-m_msskHk3Pih-87" value="发布完成" style="html=1;" vertex="1" parent="1">
          <mxGeometry x="115" y="1365" width="110" height="20" as="geometry" />
        </mxCell>
        <mxCell id="FH6hujt-m_msskHk3Pih-89" value="" style="edgeStyle=orthogonalEdgeStyle;rounded=0;orthogonalLoop=1;jettySize=auto;html=1;strokeColor=#333333;entryX=1;entryY=0.5;entryDx=0;entryDy=0;" edge="1" parent="1" source="FH6hujt-m_msskHk3Pih-84" target="FH6hujt-m_msskHk3Pih-87">
          <mxGeometry relative="1" as="geometry">
            <mxPoint x="535" y="1375" as="targetPoint" />
          </mxGeometry>
        </mxCell>
        <mxCell id="FH6hujt-m_msskHk3Pih-95" value="" style="edgeStyle=orthogonalEdgeStyle;rounded=0;orthogonalLoop=1;jettySize=auto;html=1;strokeColor=#333333;entryX=0;entryY=0.5;entryDx=0;entryDy=0;" edge="1" parent="1" source="FH6hujt-m_msskHk3Pih-90" target="FH6hujt-m_msskHk3Pih-93">
          <mxGeometry relative="1" as="geometry" />
        </mxCell>
        <mxCell id="FH6hujt-m_msskHk3Pih-90" value="合并主干" style="html=1;" vertex="1" parent="1">
          <mxGeometry x="115" y="1410" width="110" height="20" as="geometry" />
        </mxCell>
        <mxCell id="FH6hujt-m_msskHk3Pih-98" value="" style="edgeStyle=orthogonalEdgeStyle;rounded=0;orthogonalLoop=1;jettySize=auto;html=1;strokeColor=#333333;entryX=0;entryY=0.5;entryDx=0;entryDy=0;" edge="1" parent="1" source="FH6hujt-m_msskHk3Pih-96" target="FH6hujt-m_msskHk3Pih-97">
          <mxGeometry relative="1" as="geometry" />
        </mxCell>
        <mxCell id="FH6hujt-m_msskHk3Pih-96" value="生成版本TAG" style="html=1;" vertex="1" parent="1">
          <mxGeometry x="115" y="1458.5" width="110" height="20" as="geometry" />
        </mxCell>
        <mxCell id="FH6hujt-m_msskHk3Pih-99" value="在日常和预发&#xa;可自动触发" style="text;align=center;fontStyle=1;verticalAlign=middle;spacingLeft=3;spacingRight=3;strokeColor=none;rotatable=0;points=[[0,0.5],[1,0.5]];portConstraint=eastwest;fillColor=#E6E6E6;" vertex="1" parent="1">
          <mxGeometry x="10" y="1157" width="80" height="26" as="geometry" />
        </mxCell>
      </root>
    </mxGraphModel>
  </diagram>
</mxfile>
